<?xml version="1.0" standalone="no"?>
<!DOCTYPE svg PUBLIC "-//W3C//DTD SVG 20010904//EN"
 "http://www.w3.org/TR/2001/REC-SVG-20010904/DTD/svg10.dtd">
<svg version="1.0" xmlns="http://www.w3.org/2000/svg"
 width="512.000000pt" height="512.000000pt" viewBox="0 0 512.000000 512.000000"
 preserveAspectRatio="xMidYMid meet">
<metadata>
Created by potrace 1.14, written by Peter Selinger 2001-2017
</metadata>
<g transform="translate(0.000000,512.000000) scale(0.100000,-0.100000)"
fill="#000000" stroke="none">
<path d="M1695 5104 c-884 -120 -1566 -805 -1680 -1687 -22 -173 -22 -1541 0
-1714 56 -435 247 -824 555 -1133 308 -307 697 -498 1128 -554 183 -24 1541
-24 1724 0 431 56 820 247 1128 554 307 308 498 697 554 1128 24 183 24 1541
0 1724 -103 798 -683 1449 -1464 1642 -216 53 -276 56 -1093 55 -572 -1 -776
-4 -852 -15z m894 -1330 c56 -22 91 -76 91 -141 0 -46 -18 -87 -170 -399 -253
-518 -262 -534 -304 -569 l-38 -30 -274 -5 -275 -5 241 -320 c133 -176 276
-366 318 -423 42 -57 97 -130 122 -162 25 -32 85 -113 134 -179 49 -66 93
-118 97 -115 4 2 54 66 111 142 57 75 181 238 274 362 363 478 374 494 369
510 -4 8 -17 56 -31 105 -13 50 -33 122 -44 160 -11 39 -20 82 -20 96 0 53 37
113 90 145 8 5 103 11 210 14 l195 5 182 240 c100 132 182 246 182 253 1 9
-85 12 -399 12 l-400 0 -294 -587 c-162 -324 -304 -598 -317 -610 -100 -92
-256 -32 -267 103 -4 53 -2 57 314 691 175 350 330 650 343 666 49 58 34 57
733 57 408 0 656 -4 680 -10 45 -13 84 -57 98 -111 16 -60 -3 -105 -101 -236
-46 -62 -192 -257 -324 -434 -187 -250 -248 -325 -277 -340 -30 -15 -59 -19
-154 -19 -115 0 -116 0 -111 -22 3 -13 17 -70 32 -128 22 -88 25 -111 16 -142
-11 -34 -49 -88 -352 -488 -143 -189 -492 -651 -523 -693 -112 -149 -146 -177
-216 -177 -79 0 -99 18 -272 247 -90 118 -170 224 -178 236 -8 12 -98 132
-199 267 -102 135 -293 389 -425 565 -132 176 -243 322 -246 325 -11 10 -47
66 -63 97 -38 72 -5 171 68 208 38 19 63 20 421 23 l380 3 121 247 c66 136
119 250 116 255 -2 4 -325 7 -717 7 l-712 0 -42 31 c-101 74 -80 244 34 279
16 4 413 9 881 9 754 1 857 -1 892 -15z"/>
</g>
</svg>
