<svg xmlns="http://www.w3.org/2000/svg" viewBox="0 0 24 24" >
  <path d="M15.282 1.7747C15.4645 2.00101 15.5575 2.30645 15.7427 2.91657L19.8032 16.2546C18.2781 15.463 16.6411 14.9088 14.9488 14.6111L12.3055 5.67751C12.2846 5.6061 12.2411 5.54338 12.1815 5.49879C12.122 5.4542 12.0496 5.43014 11.9752 5.43022C11.9008 5.43031 11.8284 5.45453 11.769 5.49926C11.7095 5.54399 11.6662 5.6068 11.6455 5.67826L9.03377 14.6066C7.33407 14.9031 5.68981 15.4581 4.1582 16.2525L8.23783 2.91376C8.42458 2.30438 8.51758 1.99951 8.69983 1.7732C8.86092 1.57399 9.07022 1.41922 9.30789 1.32357C9.57658 1.21576 9.89589 1.21576 10.5332 1.21576H13.4475C14.0854 1.21576 14.4047 1.21576 14.6743 1.32432C14.9122 1.41996 15.1213 1.57503 15.282 1.7747ZM15.7676 16.8891C15.0983 17.4617 13.7621 17.8521 12.2233 17.8521C10.3352 17.8521 8.75177 17.2639 8.33195 16.4728C8.18195 16.9262 8.1482 17.4448 8.1482 17.7767C8.1482 17.7767 8.04939 19.4033 9.18095 20.5348C9.18095 20.3952 9.20846 20.2569 9.26191 20.1279C9.31536 19.9988 9.3937 19.8816 9.49246 19.7829C9.59121 19.6841 9.70845 19.6058 9.83748 19.5524C9.96651 19.499 10.1048 19.4715 10.2445 19.4715C11.2513 19.4715 11.2508 20.3496 11.25 21.063V21.126C11.25 22.2084 11.9113 23.1358 12.8518 23.5269C12.7069 23.2292 12.6317 22.9023 12.6321 22.5711C12.6321 21.5383 13.2377 21.1545 13.9423 20.7077C14.5028 20.3526 15.1253 19.9577 15.5537 19.1661C15.7849 18.7395 15.9058 18.2619 15.9053 17.7767C15.9055 17.4754 15.8591 17.1761 15.7676 16.8891Z" fill="black"/>
</svg>