<svg xmlns="http://www.w3.org/2000/svg" xml:space="preserve" fill-rule="evenodd" stroke-linejoin="round" stroke-miterlimit="2" clip-rule="evenodd" viewBox="0 0 24 24">
  <path fill="url(#a)" fill-rule="nonzero" d="M15.282 1.775c.182.226.275.531.461 1.142l4.06 13.338a16.886 16.886 0 0 0-4.854-1.644l-2.643-8.933a.344.344 0 0 0-.66 0l-2.612 8.929c-1.7.296-3.344.851-4.876 1.646l4.08-13.339c.187-.61.28-.914.462-1.141.161-.199.37-.354.608-.449.269-.108.588-.108 1.225-.108h2.915c.637 0 .957 0 1.226.108a1.5 1.5 0 0 1 .608.451Zm.486 15.114c-.67.573-2.006.963-3.545.963-1.888 0-3.471-.588-3.891-1.379-.15.453-.184.972-.184 1.304 0 0-.099 1.626 1.033 2.758a1.052 1.052 0 0 1 .311-.752c.099-.099.216-.177.345-.231.13-.053.268-.08.408-.08 1.006 0 1.006.878 1.005 1.591v.063a2.6 2.6 0 0 0 1.602 2.401 2.185 2.185 0 0 1-.22-.956c0-1.033.606-1.416 1.31-1.863.561-.355 1.183-.75 1.612-1.542.231-.426.352-.904.351-1.389a2.905 2.905 0 0 0-.137-.888Z"/>
  <defs>
    <linearGradient id="a" x1="0" x2="1" y1="0" y2="0" gradientTransform="matrix(15.645 0 0 22.3111 4.158 12.371)" gradientUnits="userSpaceOnUse">
      <stop offset="0" stop-color="#12a594"/>
      <stop offset=".33" stop-color="#12a594"/>
      <stop offset="1" stop-color="#ffc53d"/>
    </linearGradient>
  </defs>
</svg>