<svg xmlns="http://www.w3.org/2000/svg" version="1.1" xmlns:xlink="http://www.w3.org/1999/xlink" xmlns:svgjs="http://svgjs.dev/svgjs" viewBox="0 0 800 800"><defs><linearGradient x1="50%" y1="0%" x2="50%" y2="100%" id="ffflurry-grad" gradientTransform="rotate(270)"><stop stop-color="#0D1514" stop-opacity="1" offset="0%"></stop><stop stop-color="#0D1514" stop-opacity="1" offset="45%"></stop><stop stop-color="#111C1B" stop-opacity="1" offset="100%"></stop></linearGradient></defs><rect width="100%" height="100%" fill="#0d1514"></rect><g fill="url(#ffflurry-grad)"><rect width="175" height="2" x="136.5" y="765" rx="1" transform="rotate(115, 224, 766)" opacity="0.71"></rect><rect width="64" height="2" x="262" y="772" rx="1" transform="rotate(115, 294, 773)" opacity="0.27"></rect><rect width="230" height="2" x="659" y="700" rx="1" transform="rotate(115, 774, 701)" opacity="0.66"></rect><rect width="217" height="2" x="137.5" y="145" rx="1" transform="rotate(115, 246, 146)" opacity="0.78"></rect><rect width="49" height="2" x="435.5" y="311" rx="1" transform="rotate(115, 460, 312)" opacity="0.29"></rect><rect width="361" height="2" x="-129.5" y="210" rx="1" transform="rotate(115, 51, 211)" opacity="0.35"></rect><rect width="36" height="2" x="46" y="351" rx="1" transform="rotate(115, 64, 352)" opacity="0.87"></rect><rect width="35" height="2" x="305.5" y="554" rx="1" transform="rotate(115, 323, 555)" opacity="0.82"></rect><rect width="68" height="2" x="352" y="153" rx="1" transform="rotate(115, 386, 154)" opacity="0.66"></rect><rect width="165" height="2" x="676.5" y="606" rx="1" transform="rotate(115, 759, 607)" opacity="0.73"></rect><rect width="208" height="2" x="125" y="197" rx="1" transform="rotate(115, 229, 198)" opacity="0.85"></rect><rect width="120" height="2" x="715" y="197" rx="1" transform="rotate(115, 775, 198)" opacity="0.68"></rect><rect width="117" height="2" x="94.5" y="196" rx="1" transform="rotate(115, 153, 197)" opacity="0.12"></rect><rect width="146" height="2" x="584" y="396" rx="1" transform="rotate(115, 657, 397)" opacity="0.38"></rect><rect width="177" height="2" x="273.5" y="287" rx="1" transform="rotate(115, 362, 288)" opacity="0.45"></rect><rect width="102" height="2" x="193" y="259" rx="1" transform="rotate(115, 244, 260)" opacity="0.72"></rect><rect width="194" height="2" x="625" y="694" rx="1" transform="rotate(115, 722, 695)" opacity="0.74"></rect><rect width="308" height="2" x="99" y="414" rx="1" transform="rotate(115, 253, 415)" opacity="0.81"></rect><rect width="240" height="2" x="545" y="104" rx="1" transform="rotate(115, 665, 105)" opacity="0.18"></rect><rect width="300" height="2" x="349" y="346" rx="1" transform="rotate(115, 499, 347)" opacity="0.56"></rect><rect width="308" height="2" x="302" y="105" rx="1" transform="rotate(115, 456, 106)" opacity="0.95"></rect><rect width="210" height="2" x="379" y="251" rx="1" transform="rotate(115, 484, 252)" opacity="0.21"></rect><rect width="238" height="2" x="284" y="26" rx="1" transform="rotate(115, 403, 27)" opacity="0.90"></rect><rect width="177" height="2" x="-61.5" y="296" rx="1" transform="rotate(115, 27, 297)" opacity="0.56"></rect><rect width="88" height="2" x="102" y="735" rx="1" transform="rotate(115, 146, 736)" opacity="0.85"></rect><rect width="193" height="2" x="92.5" y="55" rx="1" transform="rotate(115, 189, 56)" opacity="0.55"></rect><rect width="176" height="2" x="487" y="353" rx="1" transform="rotate(115, 575, 354)" opacity="0.31"></rect><rect width="89" height="2" x="268.5" y="33" rx="1" transform="rotate(115, 313, 34)" opacity="0.87"></rect><rect width="113" height="2" x="256.5" y="263" rx="1" transform="rotate(115, 313, 264)" opacity="0.73"></rect><rect width="87" height="2" x="259.5" y="701" rx="1" transform="rotate(115, 303, 702)" opacity="0.33"></rect><rect width="285" height="2" x="387.5" y="408" rx="1" transform="rotate(115, 530, 409)" opacity="0.33"></rect><rect width="257" height="2" x="-56.5" y="146" rx="1" transform="rotate(115, 72, 147)" opacity="0.35"></rect><rect width="102" height="2" x="196" y="706" rx="1" transform="rotate(115, 247, 707)" opacity="0.72"></rect><rect width="70" height="2" x="16" y="738" rx="1" transform="rotate(115, 51, 739)" opacity="0.72"></rect><rect width="278" height="2" x="295" y="377" rx="1" transform="rotate(115, 434, 378)" opacity="0.72"></rect><rect width="150" height="2" x="219" y="500" rx="1" transform="rotate(115, 294, 501)" opacity="0.33"></rect><rect width="132" height="2" x="519" y="610" rx="1" transform="rotate(115, 585, 611)" opacity="0.48"></rect><rect width="322" height="2" x="538" y="309" rx="1" transform="rotate(115, 699, 310)" opacity="0.71"></rect><rect width="161" height="2" x="217.5" y="211" rx="1" transform="rotate(115, 298, 212)" opacity="0.71"></rect><rect width="292" height="2" x="171" y="158" rx="1" transform="rotate(115, 317, 159)" opacity="0.45"></rect><rect width="67" height="2" x="72.5" y="283" rx="1" transform="rotate(115, 106, 284)" opacity="0.46"></rect><rect width="55" height="2" x="696.5" y="257" rx="1" transform="rotate(115, 724, 258)" opacity="0.53"></rect><rect width="104" height="2" x="641" y="764" rx="1" transform="rotate(115, 693, 765)" opacity="0.89"></rect><rect width="65" height="2" x="437.5" y="433" rx="1" transform="rotate(115, 470, 434)" opacity="0.56"></rect><rect width="244" height="2" x="53" y="276" rx="1" transform="rotate(115, 175, 277)" opacity="0.60"></rect><rect width="43" height="2" x="518.5" y="289" rx="1" transform="rotate(115, 540, 290)" opacity="0.28"></rect><rect width="213" height="2" x="293.5" y="565" rx="1" transform="rotate(115, 400, 566)" opacity="0.10"></rect><rect width="178" height="2" x="283" y="218" rx="1" transform="rotate(115, 372, 219)" opacity="0.46"></rect><rect width="285" height="2" x="237.5" y="694" rx="1" transform="rotate(115, 380, 695)" opacity="0.76"></rect><rect width="31" height="2" x="399.5" y="300" rx="1" transform="rotate(115, 415, 301)" opacity="0.86"></rect><rect width="41" height="2" x="571.5" y="692" rx="1" transform="rotate(115, 592, 693)" opacity="0.76"></rect><rect width="334" height="2" x="449" y="261" rx="1" transform="rotate(115, 616, 262)" opacity="0.71"></rect><rect width="139" height="2" x="427.5" y="596" rx="1" transform="rotate(115, 497, 597)" opacity="0.71"></rect><rect width="232" height="2" x="646" y="502" rx="1" transform="rotate(115, 762, 503)" opacity="0.70"></rect><rect width="211" height="2" x="485.5" y="447" rx="1" transform="rotate(115, 591, 448)" opacity="0.30"></rect><rect width="85" height="2" x="668.5" y="29" rx="1" transform="rotate(115, 711, 30)" opacity="0.53"></rect><rect width="208" height="2" x="69" y="390" rx="1" transform="rotate(115, 173, 391)" opacity="0.80"></rect><rect width="65" height="2" x="76.5" y="383" rx="1" transform="rotate(115, 109, 384)" opacity="0.15"></rect><rect width="143" height="2" x="-51.5" y="44" rx="1" transform="rotate(115, 20, 45)" opacity="0.26"></rect><rect width="272" height="2" x="420" y="767" rx="1" transform="rotate(115, 556, 768)" opacity="0.43"></rect><rect width="45" height="2" x="656.5" y="182" rx="1" transform="rotate(115, 679, 183)" opacity="0.32"></rect><rect width="183" height="2" x="687.5" y="267" rx="1" transform="rotate(115, 779, 268)" opacity="0.58"></rect><rect width="182" height="2" x="200" y="333" rx="1" transform="rotate(115, 291, 334)" opacity="0.96"></rect><rect width="172" height="2" x="339" y="238" rx="1" transform="rotate(115, 425, 239)" opacity="0.79"></rect><rect width="32" height="2" x="705" y="199" rx="1" transform="rotate(115, 721, 200)" opacity="0.84"></rect><rect width="282" height="2" x="357" y="41" rx="1" transform="rotate(115, 498, 42)" opacity="0.72"></rect><rect width="272" height="2" x="300" y="729" rx="1" transform="rotate(115, 436, 730)" opacity="0.16"></rect><rect width="226" height="2" x="199" y="450" rx="1" transform="rotate(115, 312, 451)" opacity="0.93"></rect><rect width="299" height="2" x="395.5" y="214" rx="1" transform="rotate(115, 545, 215)" opacity="0.93"></rect><rect width="102" height="2" x="304" y="444" rx="1" transform="rotate(115, 355, 445)" opacity="0.86"></rect><rect width="187" height="2" x="442.5" y="656" rx="1" transform="rotate(115, 536, 657)" opacity="0.66"></rect><rect width="160" height="2" x="159" y="31" rx="1" transform="rotate(115, 239, 32)" opacity="0.11"></rect><rect width="149" height="2" x="588.5" y="678" rx="1" transform="rotate(115, 663, 679)" opacity="0.62"></rect><rect width="208" height="2" x="-73" y="414" rx="1" transform="rotate(115, 31, 415)" opacity="0.49"></rect><rect width="245" height="2" x="93.5" y="339" rx="1" transform="rotate(115, 216, 340)" opacity="0.62"></rect><rect width="326" height="2" x="515" y="596" rx="1" transform="rotate(115, 678, 597)" opacity="0.63"></rect><rect width="394" height="2" x="-72" y="605" rx="1" transform="rotate(115, 125, 606)" opacity="0.65"></rect><rect width="59" height="2" x="170.5" y="120" rx="1" transform="rotate(115, 200, 121)" opacity="0.43"></rect><rect width="258" height="2" x="374" y="741" rx="1" transform="rotate(115, 503, 742)" opacity="0.12"></rect><rect width="153" height="2" x="-34.5" y="616" rx="1" transform="rotate(115, 42, 617)" opacity="0.95"></rect><rect width="59" height="2" x="435.5" y="181" rx="1" transform="rotate(115, 465, 182)" opacity="0.19"></rect><rect width="60" height="2" x="299" y="629" rx="1" transform="rotate(115, 329, 630)" opacity="0.70"></rect><rect width="232" height="2" x="255" y="343" rx="1" transform="rotate(115, 371, 344)" opacity="0.21"></rect><rect width="200" height="2" x="368" y="486" rx="1" transform="rotate(115, 468, 487)" opacity="0.45"></rect><rect width="94" height="2" x="88" y="456" rx="1" transform="rotate(115, 135, 457)" opacity="0.99"></rect><rect width="192" height="2" x="292" y="502" rx="1" transform="rotate(115, 388, 503)" opacity="0.32"></rect><rect width="228" height="2" x="525" y="325" rx="1" transform="rotate(115, 639, 326)" opacity="0.26"></rect><rect width="249" height="2" x="-55.5" y="32" rx="1" transform="rotate(115, 69, 33)" opacity="0.89"></rect><rect width="275" height="2" x="-5.5" y="119" rx="1" transform="rotate(115, 132, 120)" opacity="0.24"></rect><rect width="148" height="2" x="218" y="98" rx="1" transform="rotate(115, 292, 99)" opacity="0.38"></rect><rect width="63" height="2" x="344.5" y="626" rx="1" transform="rotate(115, 376, 627)" opacity="0.21"></rect><rect width="334" height="2" x="446" y="176" rx="1" transform="rotate(115, 613, 177)" opacity="0.50"></rect><rect width="289" height="2" x="285.5" y="631" rx="1" transform="rotate(115, 430, 632)" opacity="0.94"></rect><rect width="409" height="2" x="332.5" y="131" rx="1" transform="rotate(115, 537, 132)" opacity="0.60"></rect><rect width="295" height="2" x="210.5" y="765" rx="1" transform="rotate(115, 358, 766)" opacity="0.77"></rect><rect width="45" height="2" x="738.5" y="95" rx="1" transform="rotate(115, 761, 96)" opacity="0.75"></rect><rect width="295" height="2" x="232.5" y="85" rx="1" transform="rotate(115, 380, 86)" opacity="0.12"></rect><rect width="241" height="2" x="113.5" y="499" rx="1" transform="rotate(115, 234, 500)" opacity="0.36"></rect><rect width="124" height="2" x="410" y="674" rx="1" transform="rotate(115, 472, 675)" opacity="0.74"></rect><rect width="191" height="2" x="331.5" y="778" rx="1" transform="rotate(115, 427, 779)" opacity="0.85"></rect><rect width="193" height="2" x="624.5" y="435" rx="1" transform="rotate(115, 721, 436)" opacity="0.78"></rect><rect width="25" height="2" x="315.5" y="722" rx="1" transform="rotate(115, 328, 723)" opacity="0.75"></rect><rect width="78" height="2" x="561" y="78" rx="1" transform="rotate(115, 600, 79)" opacity="0.51"></rect><rect width="77" height="2" x="136.5" y="531" rx="1" transform="rotate(115, 175, 532)" opacity="0.73"></rect><rect width="200" height="2" x="162" y="601" rx="1" transform="rotate(115, 262, 602)" opacity="0.67"></rect><rect width="133" height="2" x="696.5" y="769" rx="1" transform="rotate(115, 763, 770)" opacity="0.65"></rect><rect width="207" height="2" x="-68.5" y="110" rx="1" transform="rotate(115, 35, 111)" opacity="0.70"></rect><rect width="104" height="2" x="718" y="314" rx="1" transform="rotate(115, 770, 315)" opacity="0.17"></rect><rect width="52" height="2" x="642" y="504" rx="1" transform="rotate(115, 668, 505)" opacity="0.58"></rect><rect width="183" height="2" x="200.5" y="665" rx="1" transform="rotate(115, 292, 666)" opacity="0.96"></rect><rect width="71" height="2" x="569.5" y="549" rx="1" transform="rotate(115, 605, 550)" opacity="0.11"></rect><rect width="305" height="2" x="608.5" y="376" rx="1" transform="rotate(115, 761, 377)" opacity="0.57"></rect><rect width="105" height="2" x="493.5" y="510" rx="1" transform="rotate(115, 546, 511)" opacity="0.84"></rect><rect width="339" height="2" x="29.5" y="644" rx="1" transform="rotate(115, 199, 645)" opacity="0.26"></rect><rect width="123" height="2" x="340.5" y="436" rx="1" transform="rotate(115, 402, 437)" opacity="0.38"></rect><rect width="225" height="2" x="-58.5" y="504" rx="1" transform="rotate(115, 54, 505)" opacity="0.96"></rect><rect width="170" height="2" x="258" y="389" rx="1" transform="rotate(115, 343, 390)" opacity="0.26"></rect><rect width="101" height="2" x="78.5" y="39" rx="1" transform="rotate(115, 129, 40)" opacity="0.35"></rect><rect width="248" height="2" x="461" y="24" rx="1" transform="rotate(115, 585, 25)" opacity="0.09"></rect><rect width="186" height="2" x="535" y="760" rx="1" transform="rotate(115, 628, 761)" opacity="0.38"></rect><rect width="198" height="2" x="375" y="542" rx="1" transform="rotate(115, 474, 543)" opacity="0.40"></rect></g></svg>