<svg xmlns="http://www.w3.org/2000/svg" xml:space="preserve" fill-rule="evenodd" stroke-linejoin="round" stroke-miterlimit="2" clip-rule="evenodd" viewBox="0 0 24 24">
  <path fill="url(#a)" d="M8.667 1.25a4.084 4.084 0 0 0-2.36 7.417 4.082 4.082 0 0 0 .002 6.666 4.081 4.081 0 0 0 .483 6.959 4.084 4.084 0 0 0 5.959-3.626v-3.504a4.077 4.077 0 0 0 3.058.881 4.083 4.083 0 0 0 1.884-7.377 4.081 4.081 0 0 0 .052-6.631 4.084 4.084 0 0 0-2.412-.786H8.669l-.002.001Zm2.583 13.333H8.667A2.585 2.585 0 0 1 6.084 12a2.577 2.577 0 0 1 .756-1.826 2.574 2.574 0 0 1 1.827-.757h2.583v5.166ZM8.667 7.917h2.583V2.75H8.667a2.583 2.583 0 0 0 0 5.167Zm9.25-2.584a2.582 2.582 0 0 1-2.58 2.584H12.75V2.75h2.584a2.577 2.577 0 0 1 1.826.757 2.577 2.577 0 0 1 .757 1.826Zm-5.167 6.664a2.58 2.58 0 0 1 2.58-2.58h.006a2.586 2.586 0 0 1 2.53 3.088 2.586 2.586 0 0 1-3.52 1.882 2.582 2.582 0 0 1-1.596-2.384v-.006Zm-4.083 4.086a2.578 2.578 0 0 0-2.533 3.087 2.576 2.576 0 0 0 2.028 2.029 2.586 2.586 0 0 0 2.652-1.097c.284-.425.436-.924.436-1.435v-2.584H8.667Z"/>
  <defs>
    <linearGradient id="a" x1="0" x2="1" y1="0" y2="0" gradientTransform="matrix(14.8381 0 0 21.4995 4.58 11.999)" gradientUnits="userSpaceOnUse">
      <stop offset="0" stop-color="#12a594"/>
      <stop offset=".33" stop-color="#12a594"/>
      <stop offset="1" stop-color="#ffc53d"/>
    </linearGradient>
  </defs>
</svg>