<svg xmlns="http://www.w3.org/2000/svg" viewBox="0 0 24 24">
<path fill-rule="evenodd" clip-rule="evenodd" d="M8.66696 1.24999C7.79994 1.24935 6.95523 1.52472 6.25516 2.03622C5.5551 2.54772 5.03603 3.26879 4.77314 4.09499C4.51026 4.92119 4.5172 5.80963 4.79296 6.63163C5.06872 7.45362 5.59899 8.16649 6.30696 8.66699C5.77392 9.04404 5.33921 9.54357 5.03938 10.1236C4.73955 10.7036 4.58336 11.3471 4.58396 12C4.58396 13.376 5.26496 14.594 6.30896 15.333C5.73703 15.7378 5.27892 16.2831 4.9787 16.9162C4.67848 17.5493 4.54625 18.2491 4.59475 18.9481C4.64324 19.6472 4.87082 20.322 5.25559 20.9076C5.64036 21.4932 6.16937 21.9699 6.79172 22.2919C7.41407 22.6139 8.10882 22.7703 8.80911 22.7461C9.50941 22.7219 10.1917 22.5179 10.7903 22.1536C11.3889 21.7894 11.8837 21.2772 12.2271 20.6664C12.5705 20.0556 12.7509 19.3667 12.751 18.666V15.162C13.1757 15.5061 13.6653 15.7615 14.1906 15.9128C14.7159 16.0642 15.2663 16.1086 15.809 16.0432C16.3518 15.9779 16.8759 15.8043 17.3503 15.5326C17.8247 15.2609 18.2397 14.8967 18.5707 14.4616C18.9017 14.0266 19.142 13.5294 19.2772 12.9997C19.4125 12.4701 19.44 11.9186 19.3581 11.3781C19.2763 10.8376 19.0867 10.319 18.8007 9.85312C18.5146 9.38725 18.1379 8.98356 17.693 8.66599C18.4009 8.1655 18.9312 7.45262 19.207 6.63063C19.4827 5.80863 19.4897 4.92019 19.2268 4.09399C18.9639 3.26779 18.4448 2.54672 17.7448 2.03522C17.0447 1.52372 16.2 1.24835 15.333 1.24899H8.66896L8.66696 1.24999ZM11.25 14.583H8.66696C8.32775 14.583 7.99187 14.5162 7.67849 14.3864C7.3651 14.2566 7.08036 14.0663 6.8405 13.8265C6.60065 13.5866 6.41039 13.3018 6.28058 12.9885C6.15077 12.6751 6.08396 12.3392 6.08396 12C6.08396 11.6608 6.15077 11.3249 6.28058 11.0115C6.41039 10.6981 6.60065 10.4134 6.8405 10.1735C7.08036 9.93368 7.3651 9.74342 7.67849 9.61361C7.99187 9.48381 8.32775 9.41699 8.66696 9.41699H11.25V14.583ZM8.66696 7.91699H11.25V2.74999H8.66696C7.98177 2.74999 7.32465 3.02218 6.84015 3.50668C6.35565 3.99118 6.08346 4.64831 6.08346 5.33349C6.08346 6.01868 6.35565 6.6758 6.84015 7.1603C7.32465 7.6448 7.98177 7.91699 8.66696 7.91699ZM17.917 5.33299C17.9172 6.0177 17.6456 6.6745 17.1618 7.15904C16.678 7.64357 16.0217 7.9162 15.337 7.91699H12.75V2.74999H15.334C15.6732 2.74999 16.009 2.81681 16.3224 2.94661C16.6358 3.07642 16.9206 3.26668 17.1604 3.50654C17.4003 3.74639 17.5905 4.03114 17.7203 4.34452C17.8501 4.65791 17.917 4.99379 17.917 5.33299ZM12.75 11.997C12.7508 11.313 13.0228 10.6572 13.5065 10.1735C13.9902 9.68986 14.6459 9.41779 15.33 9.41699H15.336C15.8466 9.41759 16.3456 9.56951 16.7699 9.85356C17.1942 10.1376 17.5248 10.541 17.7199 11.0129C17.915 11.4848 17.9659 12.0039 17.8662 12.5046C17.7664 13.0054 17.5205 13.4654 17.1594 13.8264C16.7984 14.1875 16.3384 14.4335 15.8376 14.5332C15.3368 14.633 14.8177 14.5821 14.3459 14.3869C13.874 14.1918 13.4706 13.8612 13.1865 13.4369C12.9025 13.0126 12.7506 12.5136 12.75 12.003V11.997ZM8.66696 16.083C8.15613 16.083 7.65678 16.2345 7.23203 16.5182C6.80727 16.802 6.4762 17.2054 6.28067 17.6773C6.08514 18.1492 6.03393 18.6685 6.13352 19.1695C6.2331 19.6706 6.47901 20.1308 6.84015 20.4921C7.20129 20.8534 7.66144 21.0995 8.16243 21.1992C8.66341 21.299 9.18274 21.248 9.65474 21.0527C10.1267 20.8573 10.5302 20.5264 10.8142 20.1018C11.0981 19.6771 11.2498 19.1778 11.25 18.667V16.083H8.66696Z" fill="black"/>
</svg>
