<svg xmlns="http://www.w3.org/2000/svg" opacity=".2" viewBox="0 0 800 800">
  <defs>
    <linearGradient id="shape-gradient" x1="50%" x2="50%" y1="0%" y2="100%">
      <stop offset="0%" stop-color="#12A594"/>
      <stop offset="100%" stop-color="#084843"/>
    </linearGradient>
  </defs>
  <g fill="none" stroke="url(#shape-gradient)" stroke-linecap="round" stroke-width="2">
    <path stroke-dasharray="8 2" d="M382.28 124.54c9.46 2.08 18.94 3.85 28.44 5.26 9.52.54 19.09.75 28.69.72 9.65-.67 19.37-1.31 29.16-1.77 9.88-.6 19.87-.69 29.96-.12 10.21.9 20.55 2.7 31 5.45 10.57 3.34 21.24 7.7 31.96 13.03 10.79 5.94 21.56 12.76 32.22 20.34a450.545 450.545 0 0 1 30.92 25.72c9.68 9.29 18.8 18.87 27.2 28.63 7.83 9.77 14.74 19.61 20.57 29.47 5.04 9.72 8.87 19.43 11.39 29.09 1.67 9.49 2.04 18.95 1.12 28.4-1.56 9.29-4.2 18.61-7.77 27.99-3.75 9.26-8.02 18.63-12.6 28.14-4.09 9.44-8.02 19.06-11.54 28.87-2.42 9.79-4.09 19.8-4.88 30.03.63 10.22 2.14 20.42 4.43 30.57 3.4 10.13 7.22 20.18 11.24 30.07 4.53 9.84 8.79 19.46 12.53 28.79 3.6 9.18 6.29 17.96 7.93 26.25 1.01 8.02.74 15.43-.82 22.13-2.4 6.34-6.11 11.87-11.04 16.54-5.71 4.29-12.51 7.73-20.25 10.32-8.31 2.37-17.35 4.06-26.97 5.2-9.93 1.29-20.24 2.37-30.8 3.46-10.65 1.8-21.41 4.04-32.2 6.95-10.73 4.14-21.41 9.28-32 15.5-10.48 7.62-20.84 16.3-31.09 25.88-10.12 10.5-20.13 21.38-30.04 32.23-9.82 10.66-19.57 20.41-29.24 28.76-9.62 6.87-19.2 11.56-28.74 13.75-9.51.02-19.01-2.61-28.47-7.79-9.46-6.87-18.68-15.39-27.64-24.97-8.96-9.73-17.67-19.45-26.11-28.63-8.45-7.95-16.62-14.69-24.49-20.04-7.89-3.55-15.49-5.7-22.78-6.62-7.31.56-14.32 1.84-21.03 3.51-6.76 2.29-13.24 4.32-19.44 5.79-6.29 1.24-12.33 1.44-18.12.47-5.94-1.73-11.68-4.8-17.23-9.17-5.73-5.24-11.3-11.69-16.71-19.21-5.63-8.21-11.12-17.27-16.45-27-5.55-10.14-10.93-20.73-16.11-31.59a862.397 862.397 0 0 1-15.3-33.41c-4.91-11.21-9.48-22.35-13.66-33.36-4.14-10.98-7.81-21.8-10.96-32.42-3.01-10.59-5.42-21-7.18-31.2-1.54-10.18-2.39-20.18-2.51-29.97.15-9.8 1.02-19.17 2.59-28.12 1.79-8.97 4.22-17.54 7.24-25.69 3.16-8.19 6.84-15.99 10.99-23.41 4.17-7.47 8.74-14.6 13.64-21.4 4.82-6.92 9.91-13.57 15.24-20 5.15-6.63 10.5-13.13 16.02-19.55 5.29-6.73 10.75-13.48 16.35-20.28 5.38-7.22 10.92-14.57 16.62-22.06 5.52-7.91 11.23-15.96 17.15-24.1 5.78-8.43 11.81-16.83 18.09-25.09 6.18-8.26 12.65-16.16 19.41-23.52 6.71-7 13.72-13.21 21.04-18.49 7.29-4.6 14.89-8.09 22.78-10.41 7.88-1.58 16.06-2.02 24.5-1.39 8.44 1.11 17.16 3.02 26.12 5.57 8.96 2.46 18.17 5.16 27.62 7.9" opacity=".05"/>
    <path stroke-dasharray="9 8" d="M404.306 135.496c9.002 2.701 18.083 5.137 27.238 7.237 9.222 1.283 18.548 2.242 27.95 2.977 9.486.098 19.072.204 28.72.434 9.741.047 19.561.53 29.43 1.598a193.063 193.063 0 0 1 29.935 6.394c10.047 3.507 20.068 7.964 30.014 13.338 9.906 5.953 19.67 12.758 29.21 20.329a343.501 343.501 0 0 1 26.931 25.781c8.2 9.371 15.777 19.059 22.587 28.953 6.265 9.936 11.593 19.947 15.888 29.964 3.58 9.917 6.022 19.773 7.258 29.525.506 9.59-.154 19.076-1.96 28.452-2.325 9.23-5.59 18.402-9.653 27.529-4.156 9.03-8.767 18.097-13.62 27.208-4.372 9.094-8.582 18.31-12.44 27.662-2.84 9.413-5.012 19.014-6.424 28.779-.135 9.865.525 19.676 1.884 29.396 2.388 9.762 5.176 19.393 8.161 28.796 3.498 9.38 6.798 18.445 9.694 27.11 2.846 8.532 4.937 16.54 6.148 23.953.52 10.373-5.014 26.854-11.125 32.758-5.12 3.358-11.245 5.912-18.23 7.725-7.55 1.712-15.802 2.874-24.658 3.642-9.206 1.034-18.858 2.006-28.83 3.106-10.167 1.868-20.57 4.231-31.101 7.287-10.624 4.222-21.323 9.361-32.05 15.47-10.743 7.332-21.477 15.526-32.16 24.415-10.643 9.604-21.209 19.394-31.66 28.992-10.352 9.304-20.544 17.636-30.558 24.568-9.854 5.53-19.513 9.008-28.927 10.157-9.255-.824-18.289-4.068-27.096-9.673-8.69-7.13-17.01-15.787-24.98-25.443-7.975-9.856-15.665-19.773-23.114-29.281-7.533-8.452-14.858-15.886-21.978-22.093-7.265-4.594-14.33-7.9-21.186-10.038-6.997-.715-13.778-.652-20.304-.08-6.637 1.285-13.03 2.518-19.13 3.43-6.206.865-12.136.947-17.79.087-5.755-1.409-11.258-3.973-16.49-7.68-5.379-4.46-10.538-10.048-15.464-16.662-5.09-7.286-9.988-15.432-14.675-24.294-4.865-9.326-9.513-19.168-13.954-29.396a640.99 640.99 0 0 1-12.903-31.918c-4.084-10.875-7.838-21.737-11.197-32.52-3.319-10.78-6.185-21.43-8.544-31.901-2.21-10.432-3.863-20.674-4.89-30.681-.799-9.981-.953-19.726-.392-29.23.81-9.477 2.32-18.503 4.458-27.064 2.37-8.574 5.33-16.716 8.843-24.427a184.281 184.281 0 0 1 12.388-22.102 232.453 232.453 0 0 1 14.904-20.26c5.238-6.598 10.74-12.966 16.462-19.169a642.84 642.84 0 0 1 17.285-19.05c5.75-6.62 11.664-13.27 17.712-19.99a2577.672 2577.672 0 0 1 18.069-21.632 1247.735 1247.735 0 0 1 18.598-23.167c6.246-7.95 12.704-15.784 19.365-23.374 6.556-7.516 13.341-14.586 20.344-21.049 6.913-6.048 14.04-11.279 21.389-15.551 7.263-3.618 14.74-6.147 22.427-7.54 7.608-.705 15.432-.343 23.464 1.047 7.984 1.787 16.204 4.342 24.643 7.494 8.427 3.042 17.127 6.323 26.074 9.671" opacity=".09"/>
    <path stroke-dasharray="0 7" d="M425.352 148.214a417.923 417.923 0 0 0 25.882 9.068c8.87 1.976 17.863 3.657 26.97 5.111 9.23.856 18.567 1.687 27.97 2.608 9.498.691 19.033 1.752 28.57 3.308a199.48 199.48 0 0 1 28.61 7.344c9.443 3.644 18.762 8.148 27.881 13.493 9.014 5.875 17.751 12.56 26.152 19.974 8.159 7.845 15.866 16.302 23.033 25.228 6.764 9.202 12.856 18.723 18.15 28.464 4.758 9.806 8.605 19.705 11.455 29.583 2.212 9.819 3.356 19.546 3.408 29.139-.554 9.456-2.168 18.761-4.77 27.906-3.026 9.014-6.854 17.905-11.363 26.688-4.531 8.72-9.44 17.396-14.548 26.064-4.62 8.707-9.098 17.485-13.254 26.338-3.225 8.986-5.873 18.105-7.845 27.37a195.862 195.862 0 0 0-.422 27.948c1.466 9.308 3.303 18.427 5.362 27.254 2.562 8.848 5.006 17.315 7.153 25.317 2.155 7.87 3.714 15.172 4.56 21.807.246 9.226-4.81 23.356-10.204 28.196-4.539 2.729-9.976 4.745-16.23 6.11-6.78 1.37-14.276 2.305-22.369 2.964-8.507 1.015-17.502 2.05-26.91 3.3a322.585 322.585 0 0 0-29.997 7.742c-10.471 4.25-21.138 9.31-31.932 15.192-10.909 6.905-21.894 14.487-32.88 22.583-10.987 8.59-21.916 17.2-32.7 25.507-10.676 7.898-21.123 14.818-31.283 20.365-9.933 4.226-19.512 6.532-28.697 6.703-8.914-1.599-17.452-5.417-25.598-11.36-7.947-7.34-15.405-16.065-22.457-25.723-7.02-9.894-13.75-19.9-20.24-29.608-6.633-8.84-13.117-16.81-19.457-23.73-6.584-5.49-13.06-9.824-19.406-13.068-6.588-1.905-13.026-3.01-19.293-3.547-6.46.255-12.692.612-18.673.834-9.032.232-25.815-3.21-33.53-7.558-5.153-3.832-10.02-8.685-14.61-14.487-4.694-6.414-9.148-13.672-13.337-21.66-4.315-8.45-8.378-17.471-12.176-26.929a484.571 484.571 0 0 1-10.814-29.977 491.65 491.65 0 0 1-8.937-31.105c-2.543-10.401-4.645-20.709-6.255-30.856-1.461-10.126-2.383-20.064-2.713-29.767-.113-9.661.408-19.092 1.596-28.246 1.436-9.118 3.512-17.762 6.187-25.938a163.975 163.975 0 0 1 10.307-23.221 186.903 186.903 0 0 1 13.647-20.93c5.022-6.7 10.396-13.109 16.068-19.273a388.786 388.786 0 0 1 17.635-18.424c6.006-6.238 12.194-12.4 18.55-18.537 6.21-6.461 12.585-12.95 19.091-19.51a2310.558 2310.558 0 0 1 19.528-20.873 1062.992 1062.992 0 0 1 20.01-21.854c6.69-7.353 13.554-14.509 20.573-21.33 6.878-6.69 13.924-12.85 21.11-18.365 7.045-5.08 14.24-9.311 21.555-12.596 7.173-2.648 14.482-4.256 21.919-4.776 7.309.098 14.755 1.216 22.34 3.282 7.526 2.412 15.225 5.525 23.125 9.212 7.907 3.567 16.065 7.361 24.493 11.244" opacity=".13"/>
    <path stroke-dasharray="0 10" d="M445.072 162.632c7.992 3.793 16.128 7.391 24.393 10.72 8.44 2.611 17.037 4.969 25.75 7.116 8.871 1.557 17.85 3.087 26.88 4.668 9.136 1.317 18.289 2.945 27.396 4.973 9.118 2.121 18.146 4.848 27.01 8.245 8.802 3.74 17.366 8.25 25.647 13.505 8.1 5.718 15.838 12.167 23.126 19.286a207.88 207.88 0 0 1 19.307 24.162c5.425 8.795 10.132 17.927 14.04 27.256 3.388 9.42 5.878 18.925 7.429 28.423.976 9.455.971 18.813-.024 28.02-1.515 9.104-3.944 18.033-7.25 26.763-3.626 8.642-7.941 17.115-12.829 25.444-4.852 8.307-10.015 16.536-15.318 24.705-4.85 8.245-9.554 16.532-13.97 24.85-3.574 8.5-6.637 17.098-9.106 25.783a198.497 198.497 0 0 0-2.48 26.316c.63 8.778 1.63 17.318 2.859 25.55 1.72 8.276 3.389 16.13 4.858 23.483 1.548 7.267 2.625 13.922 3.149 19.915-.014 8.303-4.627 20.782-9.391 24.965-4.004 2.403-8.82 4.16-14.402 5.386-6.099 1.299-12.89 2.254-20.3 3.036-7.86 1.165-16.268 2.408-25.15 3.906a367.245 367.245 0 0 0-28.92 8.211c-10.284 4.215-20.858 9.114-31.636 14.675-10.962 6.37-22.043 13.247-33.171 20.441-11.166 7.513-22.256 14.91-33.186 21.89-10.79 6.52-21.282 12.04-31.411 16.248-9.823 2.973-19.196 4.182-28.051 3.457-8.501-2.327-16.494-6.641-23.972-12.87-7.213-7.47-13.866-16.213-20.04-25.803-6.137-9.858-11.956-19.863-17.544-29.654-5.758-9.102-11.394-17.482-16.956-24.967-5.859-6.25-11.683-11.468-17.454-15.694a99.095 99.095 0 0 0-18.04-6.82c-6.18-.805-12.183-1.379-17.986-1.93-8.845-.63-25.296-4.562-32.826-8.552-4.997-3.405-9.67-7.692-14.031-12.822-4.421-5.654-8.549-12.105-12.373-19.257-3.891-7.596-7.485-15.773-10.773-24.416-3.338-8.94-6.364-18.233-9.058-27.74a387.309 387.309 0 0 1-6.94-29.27c-1.848-9.868-3.26-19.683-4.195-29.375-.775-9.679-1.023-19.193-.715-28.485.535-9.254 1.672-18.266 3.428-27.013 2.021-8.7 4.629-16.935 7.783-24.717a163.522 163.522 0 0 1 11.634-22.028c4.521-6.956 9.467-13.554 14.797-19.846 5.405-6.356 11.144-12.457 17.164-18.345 6.02-6.03 12.286-11.916 18.764-17.694a852.532 852.532 0 0 1 19.786-17.885 1700.824 1700.824 0 0 1 20.441-18.746 1718.562 1718.562 0 0 1 20.925-19.757 884.655 884.655 0 0 1 21.304-20.146c7.092-6.639 14.288-13 21.594-18.969 7.131-5.771 14.366-10.978 21.67-15.506 7.116-4.087 14.297-7.331 21.522-9.636 7.038-1.72 14.129-2.448 21.264-2.143 6.966.852 14.018 2.642 21.145 5.318 7.044 2.965 14.225 6.584 21.576 10.74 7.37 4.017 14.977 8.269 22.848 12.628" opacity=".16"/>
    <path stroke-dasharray="8 7" d="M463.14 178.584a458.164 458.164 0 0 0 22.767 12.189 464.883 464.883 0 0 0 24.28 8.94c8.425 2.223 16.939 4.388 25.495 6.587 8.671 1.908 17.324 4.062 25.894 6.535a211.395 211.395 0 0 1 25.21 9.043 164.438 164.438 0 0 1 23.314 13.388 158.83 158.83 0 0 1 20.214 18.341 162.782 162.782 0 0 1 15.866 22.64 156.366 156.366 0 0 1 10.377 25.485c2.17 8.823 3.486 17.72 3.908 26.61a129.703 129.703 0 0 1-2.956 26.264c-2.313 8.555-5.426 16.93-9.305 25.103-4.11 8.116-8.818 16.06-13.994 23.826-5.111 7.796-10.452 15.483-15.916 23.093-5.029 7.725-9.912 15.452-14.529 23.193-3.868 7.957-7.286 15.983-10.19 24.064a200.522 200.522 0 0 0-4.282 24.548c-.098 8.207.142 16.148.64 23.768.965 7.703 1.94 14.971 2.801 21.738 1.29 9.776 1.533 25.932.005 32.141-2.811 5.245-12.806 12.323-19.979 14.513-5.526 1.429-11.736 2.596-18.568 3.646-7.31 1.443-15.202 2.987-23.62 4.765a468.707 468.707 0 0 0-27.884 8.63c-10.074 4.12-20.479 8.767-31.154 13.92-10.886 5.767-21.936 11.852-33.043 18.098-11.142 6.402-22.208 12.576-33.078 18.255-10.698 5.156-21.064 9.347-30.983 12.282-9.57 1.808-18.602 2.002-27.034.454-8.001-2.964-15.415-7.705-22.238-14.159-6.49-7.565-12.377-16.247-17.732-25.721-5.298-9.74-10.272-19.666-15.003-29.46-4.912-9.242-9.744-17.9-14.52-25.811-5.121-6.867-10.252-12.84-15.403-17.915-5.526-3.996-11.054-7.232-16.531-9.85-8.651-2.59-25.572-6.39-33.637-8.56-7.973-2.737-22.46-11.777-28.915-18.353-4.222-5.044-8.11-10.814-11.653-17.234-3.578-6.805-6.814-14.177-9.705-22.021-2.9-8.139-5.446-16.633-7.626-25.386a310.235 310.235 0 0 1-5.254-27.176 280.46 280.46 0 0 1-2.383-27.562c-.169-9.117.176-18.107 1.073-26.915 1.106-8.737 2.789-17.276 5.077-25.567 2.538-8.219 5.618-16.01 9.211-23.38a168.27 168.27 0 0 1 12.83-20.812 207.806 207.806 0 0 1 15.857-18.758c5.742-6.02 11.816-11.818 18.163-17.412 6.378-5.732 13-11.34 19.833-16.846 6.798-5.714 13.792-11.381 20.948-17.033a1455.847 1455.847 0 0 1 21.683-17.663 1331.238 1331.238 0 0 1 22.163-18.242c7.369-6.173 14.838-12.224 22.388-18.052 7.39-5.813 14.86-11.29 22.357-16.323 7.306-4.807 14.636-9.013 21.965-12.532 7.11-3.083 14.21-5.346 21.28-6.713a74.075 74.075 0 0 1 20.451.346c6.613 1.541 13.237 3.94 19.881 7.167 6.562 3.442 13.226 7.497 20.015 12.057 6.822 4.413 13.858 9.054 21.159 13.825" opacity=".2"/>
    <path stroke-dasharray="1 2" d="M479.21 195.865a480.103 480.103 0 0 0 21.032 13.44 451.034 451.034 0 0 0 22.587 10.547c7.874 2.812 15.831 5.57 23.814 8.315 8.113 2.452 16.182 5.08 24.133 7.941 7.955 2.82 15.717 6.05 23.197 9.728 7.367 3.84 14.376 8.22 20.963 13.137a133.787 133.787 0 0 1 17.447 17.192 127.021 127.021 0 0 1 12.798 20.82 123.129 123.129 0 0 1 7.205 23.28 118.265 118.265 0 0 1 .986 24.283c-.95 8.111-2.731 16.14-5.303 24.027-2.937 7.838-6.584 15.521-10.884 23.007-4.472 7.465-9.44 14.769-14.814 21.902-5.273 7.18-10.734 14.26-16.277 21.246-5.143 7.144-10.153 14.272-14.925 21.392-4.096 7.37-7.805 14.785-11.065 22.227-2.453 7.739-4.389 15.316-5.825 22.694a285.311 285.311 0 0 0-1.323 21.986c.28 7.146.62 13.867.921 20.115.537 9.084-.108 24.158-1.735 30.028-2.69 5.083-11.88 12.336-18.463 14.848-5.092 1.706-10.842 3.203-17.232 4.613-6.857 1.782-14.33 3.646-22.361 5.72a737.818 737.818 0 0 0-26.908 8.929c-9.806 3.946-19.988 8.277-30.464 12.947-10.69 5.103-21.555 10.364-32.477 15.637-10.943 5.298-21.796 10.266-32.432 14.674-10.424 3.89-20.474 6.82-30.033 8.588-9.166.73-17.746.013-25.664-2.271-7.444-3.517-14.253-8.612-20.396-15.23-5.796-7.588-10.938-16.171-15.543-25.463-4.514-9.567-8.687-19.339-12.618-29.043-4.118-9.283-8.149-18.108-12.16-26.318-4.374-7.342-8.794-13.923-13.275-19.727-4.897-4.85-9.847-9.004-14.815-12.558-7.978-4.033-23.902-10.275-31.614-13.294-7.699-3.259-21.738-12.335-27.959-18.48-4.065-4.618-7.754-9.854-11.084-15.661-3.326-6.136-6.278-12.795-8.852-19.901-2.558-7.356-4.724-15.079-6.487-23.09-1.7-8.148-2.997-16.5-3.862-24.948a233.062 233.062 0 0 1-.849-25.555c.35-8.48 1.206-16.86 2.609-25.103 1.6-8.17 3.772-16.162 6.518-23.942a158.752 158.752 0 0 1 10.46-21.916 172.288 172.288 0 0 1 13.887-19.526c5.227-6.154 10.836-12.017 16.799-17.623 6.052-5.648 12.428-11.102 19.066-16.374 6.693-5.39 13.63-10.66 20.778-15.84 7.134-5.345 14.47-10.627 21.955-15.886a1297.304 1297.304 0 0 1 22.742-16.225c7.608-5.533 15.341-11 23.14-16.355a616.2 616.2 0 0 1 23.182-15.627c7.608-4.894 15.217-9.415 22.812-13.461 7.374-3.797 14.714-6.979 21.976-9.485 7.016-2.097 13.953-3.402 20.782-3.862 6.59.017 13.096.897 19.511 2.661 6.217 2.16 12.397 5.115 18.547 8.816 6.069 3.864 12.197 8.292 18.418 13.191 6.27 4.737 12.729 9.713 19.424 14.83" opacity=".24"/>
    <path stroke-dasharray="9 6" d="M492.995 214.166a510.108 510.108 0 0 0 19.185 14.483 467.85 467.85 0 0 0 20.715 11.915c7.256 3.322 14.567 6.57 21.9 9.795 7.458 2.92 14.859 5.945 22.123 9.15 7.265 3.107 14.305 6.518 21.042 10.264 6.627 3.84 12.847 8.098 18.614 12.779 5.524 4.878 10.502 10.19 14.892 15.906a101.027 101.027 0 0 1 10.123 18.804 97.705 97.705 0 0 1 4.591 20.81c.345 7.174-.1 14.42-1.31 21.64-1.617 7.245-3.976 14.408-7.056 21.443-3.371 7.026-7.38 13.907-11.946 20.613-4.691 6.716-9.804 13.298-15.259 19.714-5.33 6.505-10.83 12.922-16.383 19.24-5.192 6.512-10.25 12.997-15.108 19.474-4.274 6.74-8.205 13.523-11.743 20.31-2.84 7.11-5.212 14.059-7.14 20.824a278.624 278.624 0 0 0-3.04 20.247c-.465 9.727-1.033 27.138-1.648 34.593-1.047 6.855-5.642 17.694-9.472 21.793-4.998 3.694-18.742 9.667-27.516 12.396-6.538 2.123-13.673 4.306-21.376 6.628a1958.67 1958.67 0 0 0-25.973 9.044 2636.072 2636.072 0 0 0-29.545 11.79c-10.384 4.405-20.929 8.825-31.518 13.127-10.58 4.23-21.05 8.047-31.276 11.273-9.988 2.697-19.565 4.482-28.636 5.19-8.639-.226-16.659-1.753-23.992-4.66-6.84-3.979-13.006-9.355-18.493-16.07-5.096-7.558-9.543-15.998-13.433-25.065-3.781-9.335-7.221-18.89-10.406-28.428-3.36-9.223-6.643-18.104-9.907-26.493-3.624-7.686-7.325-14.737-11.11-21.114-4.224-5.575-8.534-10.52-12.906-14.913-7.165-5.375-21.8-14.06-29.01-18.019-7.294-3.942-20.694-13.518-26.648-19.488-3.874-4.355-7.384-9.225-10.514-14.572-3.106-5.599-5.818-11.656-8.13-18.115-2.272-6.67-4.127-13.68-5.55-20.967a188.727 188.727 0 0 1-2.72-22.753 190.29 190.29 0 0 1 .4-23.442c.78-7.797 2.073-15.54 3.894-23.164a158.693 158.693 0 0 1 7.733-22.17 156.31 156.31 0 0 1 11.519-20.344 175.363 175.363 0 0 1 14.79-18.137c5.497-5.706 11.372-11.155 17.583-16.375 6.308-5.242 12.925-10.29 19.824-15.19 6.942-4.968 14.13-9.825 21.528-14.588a851.8 851.8 0 0 1 22.75-14.454c7.71-4.874 15.553-9.7 23.498-14.435a818.77 818.77 0 0 1 23.806-14.121c7.853-4.58 15.738-8.915 23.604-12.94 7.687-3.92 15.337-7.44 22.894-10.464 7.336-2.773 14.574-4.942 21.67-6.452 6.838-1.132 13.527-1.52 20.055-1.136 6.28.81 12.415 2.41 18.411 4.802 5.795 2.719 11.507 6.157 17.16 10.26 5.566 4.228 11.156 8.96 16.804 14.124 5.708 5.005 11.583 10.25 17.647 15.634" opacity=".28"/>
    <path stroke-dasharray="4 4" d="M504.25 233.158a557.01 557.01 0 0 0 17.25 15.276 465.853 465.853 0 0 0 18.69 13.007c6.567 3.749 13.182 7.41 19.79 11.022 6.75 3.302 13.424 6.665 19.928 10.13 6.545 3.329 12.837 6.873 18.804 10.64 5.868 3.804 11.324 7.909 16.297 12.322 4.76 4.536 8.967 9.4 12.566 14.572a79.062 79.062 0 0 1 7.853 16.705 76.346 76.346 0 0 1 2.528 18.222c-.268 6.26-1.275 12.566-2.998 18.85-2.064 6.305-4.81 12.549-8.201 18.684-3.625 6.147-7.81 12.173-12.491 18.046-4.763 5.92-9.894 11.722-15.317 17.39-5.3 5.778-10.733 11.485-16.217 17.12-5.158 5.831-10.214 11.662-15.077 17.471a293.115 293.115 0 0 0-12.21 18.368c-3.15 6.47-5.886 12.799-8.222 18.957a287.877 287.877 0 0 0-4.579 18.578c-1.312 9.003-3.429 25.306-4.675 32.414-1.573 6.66-6.773 17.613-10.686 22.015-4.959 4.088-18.332 11.11-26.8 14.378-6.301 2.424-13.175 4.858-20.61 7.365a2540.743 2540.743 0 0 1-25.04 8.932 2771.76 2771.76 0 0 1-28.444 10.486c-9.954 3.706-20.047 7.292-30.17 10.658-10.082 3.206-20.021 5.955-29.691 8.1-9.413 1.624-18.398 2.388-26.847 2.158-8.018-1.055-15.392-3.262-22.08-6.702-6.202-4.346-11.708-9.92-16.526-16.668-4.43-7.47-8.205-15.713-11.427-24.498-3.107-9.064-5.849-18.34-8.349-27.645-2.645-9.077-5.213-17.919-7.765-26.366-2.896-7.894-5.874-15.276-8.949-22.098-3.511-6.158-7.137-11.766-10.864-16.87-6.232-6.567-19.263-17.552-25.822-22.5-6.721-4.729-19.214-15.152-24.793-21.162-3.653-4.248-6.932-8.896-9.838-13.923-2.886-5.21-5.376-10.796-7.445-16.723-2.01-6.078-3.595-12.461-4.739-19.095a152.827 152.827 0 0 1-1.783-20.683c-.012-7.07.46-14.197 1.435-21.348a150.34 150.34 0 0 1 4.933-21.158 144.07 144.07 0 0 1 8.711-20.307 151.29 151.29 0 0 1 12.366-18.659c4.756-5.821 9.928-11.362 15.49-16.636 5.705-5.22 11.783-10.206 18.176-14.977 6.505-4.767 13.304-9.364 20.372-13.805 7.114-4.485 14.48-8.846 22.052-13.107a740.32 740.32 0 0 1 23.226-12.714 839.712 839.712 0 0 1 23.908-12.357 678.715 678.715 0 0 1 24.056-11.62c7.904-3.651 15.785-7.03 23.626-10.08 7.63-2.912 15.173-5.406 22.583-7.404 7.171-1.762 14.191-2.948 21.017-3.5 6.57-.224 12.941.24 19.098 1.417 5.9 1.528 11.623 3.767 17.168 6.716 5.349 3.207 10.58 7.054 15.709 11.494 5.05 4.523 10.096 9.497 15.165 14.87 5.146 5.21 10.42 10.647 15.849 16.237" opacity=".32"/>
    <path stroke-dasharray="9 4" d="M512.805 252.428a603.6 603.6 0 0 0 15.26 15.832 477.8 477.8 0 0 0 16.555 13.822 1096.515 1096.515 0 0 0 17.544 11.94c6.001 3.607 11.903 7.223 17.63 10.87 5.787 3.496 11.303 7.103 16.506 10.869 5.122 3.725 9.832 7.652 14.068 11.787 5.792 6.386 14.097 20.362 16.43 27.86 1.178 7.751-.399 23.71-3.123 31.738-2.326 5.38-5.27 10.688-8.791 15.915-3.711 5.25-7.921 10.408-12.564 15.446-4.703 5.095-9.73 10.103-15.01 15.01-5.157 5.045-10.456 10.035-15.78 14.973-5.052 5.159-10.025 10.308-14.85 15.467a321.434 321.434 0 0 0-12.472 16.439 244.254 244.254 0 0 0-9.098 17.13c-3.227 8.69-8.048 25.308-9.974 33.047-1.733 7.565-5.852 20.922-8.578 26.652-3.359 5.402-12.647 14.565-18.772 18.524-4.627 2.693-9.804 5.228-15.533 7.662-6.132 2.64-12.809 5.245-20.01 7.836-7.572 2.842-15.619 5.703-24.089 8.58a953.64 953.64 0 0 1-27.124 9.074c-9.435 3-18.976 5.792-28.508 8.27-9.453 2.279-18.743 4.057-27.75 5.222-8.718.685-17.002.556-24.759-.482-7.313-1.74-13.996-4.512-20-8.358-5.512-4.623-10.35-10.311-14.52-17.02-3.774-7.333-6.91-15.317-9.516-23.806-2.465-8.73-4.579-17.676-6.445-26.678-1.98-8.861-3.871-17.56-5.748-25.966-2.18-7.982-4.45-15.56-6.82-22.68-2.785-6.578-5.692-12.701-8.724-18.383-5.197-7.571-16.371-20.64-22.116-26.523-5.984-5.56-17.261-17.026-22.33-23.227-4.838-6.551-12.707-21.233-15.632-29.367a112.134 112.134 0 0 1-3.96-17.533 123.482 123.482 0 0 1-.968-18.8 129.734 129.734 0 0 1 2.265-19.347 130.378 130.378 0 0 1 5.756-19.161 133.498 133.498 0 0 1 9.464-18.401c3.882-5.91 8.225-11.54 12.985-16.895 4.926-5.262 10.266-10.261 15.973-15.017 5.839-4.684 12.03-9.157 18.533-13.432 6.598-4.239 13.495-8.313 20.64-12.218a474.504 474.504 0 0 1 22.255-11.385 636.094 636.094 0 0 1 23.344-10.732 673.401 673.401 0 0 1 23.899-10.037 532.367 532.367 0 0 1 23.861-8.95c7.8-2.697 15.545-5.099 23.186-7.151 7.442-1.907 14.753-3.4 21.89-4.41 6.888-.79 13.582-1.027 20.049-.7 6.207.626 12.177 1.87 17.898 3.75 5.49 2.172 10.75 4.968 15.803 8.39 4.875 3.628 9.605 7.804 14.201 12.51 4.542 4.755 9.043 9.91 13.527 15.41 4.576 5.356 9.242 10.923 14.034 16.63" opacity=".35"/>
    <path stroke-dasharray="4 5" d="M518.56 271.576a731.242 731.242 0 0 0 13.244 16.133 556.842 556.842 0 0 0 14.366 14.338 1068.877 1068.877 0 0 0 15.226 12.563c5.223 3.82 10.339 7.599 15.28 11.36 7.38 5.41 20.59 16.412 26.128 22.13 4.828 5.838 11.416 18.176 13.034 24.632.579 6.585-1.868 19.996-4.849 26.692-3.902 6.701-14.576 19.817-21.115 26.203-4.518 4.299-9.33 8.542-14.368 12.719-4.938 4.312-10 8.607-15.11 12.867-4.87 4.473-9.7 8.976-14.42 13.498a344.061 344.061 0 0 0-12.537 14.55 269.069 269.069 0 0 0-9.81 15.367c-3.796 7.872-9.99 23.117-12.67 30.333-2.497 7.153-8.022 20.073-11.35 25.807-3.854 5.506-13.831 15.161-20.123 19.457-4.68 2.9-9.858 5.632-15.521 8.23-6.02 2.747-12.533 5.403-19.506 7.993a497.43 497.43 0 0 1-23.07 7.975 566.507 566.507 0 0 1-25.625 7.585c-8.838 2.322-17.726 4.36-26.578 6.026-8.735 1.442-17.286 2.362-25.533 2.686-7.943-.124-15.463-.99-22.459-2.688-6.55-2.302-12.495-5.511-17.796-9.662-4.813-4.798-8.986-10.515-12.507-17.118-3.15-7.124-5.686-14.828-7.709-22.96-1.876-8.348-3.409-16.926-4.688-25.58-1.372-8.56-2.63-17.023-3.871-25.288-1.515-7.945-3.09-15.587-4.77-22.87-2.057-6.854-4.237-13.34-6.545-19.447-4.097-8.368-13.17-23.182-17.969-29.905-5.096-6.335-14.833-18.917-19.253-25.412-4.243-6.65-11.097-20.972-13.575-28.67-1.997-7.965-3.709-24.734-3.346-33.408a109.74 109.74 0 0 1 2.979-17.489 112.633 112.633 0 0 1 6.392-17.236 122.061 122.061 0 0 1 9.996-16.495c4.02-5.274 8.485-10.294 13.366-15.07 5.013-4.667 10.426-9.1 16.189-13.302 5.883-4.113 12.105-8.026 18.614-11.74a332.242 332.242 0 0 1 20.602-10.476 459.476 459.476 0 0 1 22.084-9.471 553.821 553.821 0 0 1 23.059-8.568 555.906 555.906 0 0 1 23.437-7.58 429.176 429.176 0 0 1 23.202-6.215c7.545-1.747 14.994-3.18 22.317-4.271 7.118-.931 14.06-1.471 20.799-1.551 6.497.114 12.777.726 18.787 1.873 8.517 2.346 23.902 10.157 30.822 15.6 4.386 3.961 8.596 8.414 12.65 13.298 4.021 4.91 7.968 10.175 11.882 15.739 4.008 5.434 8.066 11.055 12.21 16.812" opacity=".39"/>
    <path stroke-dasharray="1 1" d="M521.52 290.156a915.071 915.071 0 0 0 11.233 16.178 587.034 587.034 0 0 0 12.182 14.57c8.902 8.534 17.624 16.693 25.814 24.504 8.558 7.086 15.971 14.222 21.864 21.43 5.46 7.024 8.905 14.302 10.13 21.674.368 7.404-1.585 14.868-5.794 22.159-4.918 7.383-11.759 14.588-20.171 21.479-8.462 7.242-17.86 14.397-27.72 21.462-4.63 3.834-9.255 7.71-13.834 11.626-6.353 6.307-17.851 19.632-22.79 26.407a503.38 503.38 0 0 0-8.219 13.962c-4.528 9.672-8.93 18.624-13.545 26.685-4.655 8.447-10.236 15.87-17.012 22.289-7.627 6.693-16.916 12.562-27.885 17.736-12.117 5.55-25.896 10.54-40.972 14.938-15.729 4.472-32.105 7.96-48.396 10.037-15.716 1.109-30.344-.048-43.139-3.978-5.766-2.728-10.966-6.247-15.543-10.589-4.13-4.867-7.644-10.536-10.553-16.978-2.54-6.875-4.514-14.229-6.002-21.969-1.328-7.945-2.316-16.087-3.072-24.333-1.722-16.291-3.24-32.159-4.957-47.067-3.03-13.596-6.571-26.038-10.505-37.37-5.21-10.172-10.465-19.765-15.406-29.065-5.598-8.836-10.394-17.92-14.084-27.363-3.76-9.438-6.1-19.4-6.807-29.772-.435-10.336.92-20.923 4.168-31.513 2.943-7.764 11.534-22.841 17.212-30.037 4.088-4.65 8.606-9.064 13.506-13.232 5.022-4.064 10.424-7.897 16.148-11.521 11.755-6.962 24.722-13.141 38.601-18.571 14.02-5.257 28.76-9.862 43.854-13.758 14.9-3.76 29.901-6.697 44.629-8.634 14.126-1.555 27.699-1.796 40.39-.476 11.797 2.03 22.578 5.887 32.196 11.696 8.817 6.506 16.728 14.814 23.827 24.756 3.489 5.005 6.895 10.306 10.237 15.869a1321.445 1321.445 0 0 1 10.407 16.762" opacity=".43"/>
    <path stroke-dasharray="1 8" d="M521.766 307.78c6.426 10.586 12.869 20.826 19.313 30.508 7.404 8.632 14.577 16.829 21.229 24.57 7.09 7.024 13.133 13.888 17.801 20.581 4.419 6.392 7.027 12.773 7.654 19.06-.01 6.21-2.093 12.346-6.179 18.242-4.615 5.978-10.958 11.789-18.725 17.352-7.777 5.931-16.452 11.85-25.651 17.745-8.512 6.71-17.043 13.694-25.345 20.946-7.194 8.337-13.775 16.562-19.828 24.534-5.338 8.77-10.653 17.019-16.2 24.604-5.566 8.002-11.959 15.179-19.378 21.517-8.097 6.57-17.615 12.363-28.561 17.399-11.815 5.235-24.995 9.72-39.173 13.38-14.582 3.53-29.564 5.868-44.293 6.69-14.052-.123-26.987-2.401-38.136-7.186-9.567-6.469-16.934-15.738-21.945-27.767-3.653-13.414-5.46-28.267-6.029-43.798-.66-15.494-1.064-30.778-1.575-45.397-1.632-13.646-3.701-26.39-6.158-38.224-3.642-10.855-7.39-21.128-10.96-31-4.249-9.364-7.862-18.733-10.536-28.204-2.813-9.3-4.349-18.86-4.416-28.575.161-9.576 1.983-19.232 5.589-28.75 4.018-9.197 9.906-18.115 17.737-26.543 8.323-7.945 18.161-14.992 29.253-21.118 11.442-5.755 23.98-10.686 37.32-14.833 13.44-3.908 27.473-7.078 41.755-9.474 14.058-2.167 28.11-3.457 41.777-3.725 13.076.12 25.514 1.49 37.011 4.292 10.676 3.396 20.313 8.379 28.758 15.021 7.778 7.165 14.616 15.846 20.611 25.87 5.981 9.984 11.674 20.846 17.28 32.268" opacity=".47"/>
    <path stroke-dasharray="9 9" d="M519.494 324.07c5.208 10.348 10.324 20.337 15.368 29.775 5.968 8.566 11.662 16.641 16.864 24.176 5.695 6.871 10.448 13.415 13.989 19.603 4.404 8.655 4.186 24.581-.698 31.857-4.21 4.823-9.962 9.46-17.026 13.912-7.001 4.81-14.91 9.635-23.411 14.53-7.922 5.625-16.062 11.562-24.212 17.79-7.269 7.236-14.182 14.439-20.775 21.518-6.024 7.845-12.125 15.316-18.499 22.281-6.365 7.399-13.476 14.136-21.47 20.131-8.503 6.206-18.178 11.646-28.994 16.28-11.437 4.703-23.919 8.542-37.105 11.388-13.361 2.574-26.886 3.877-39.983 3.611-12.378-1.128-23.593-4.26-33.127-9.644-8.056-6.73-14.094-15.903-17.962-27.424-2.618-12.641-3.523-26.532-3.256-41.059.27-14.57.878-29.105 1.459-43.202-.327-13.388-.997-26.138-2.024-38.13-2.06-11.212-4.28-21.895-6.407-32.098-2.788-9.726-5.098-19.274-6.643-28.698-1.736-9.188-2.374-18.386-1.72-27.513.819-8.926 3.119-17.733 7.052-26.264 4.281-8.198 10.268-16.01 18.034-23.259 8.176-6.785 17.728-12.65 28.386-17.6 10.925-4.556 22.833-8.273 35.39-11.151 12.62-2.598 25.7-4.402 38.914-5.362 12.972-.706 25.817-.499 38.197.707 11.841 1.578 22.98 4.324 33.143 8.335 9.446 4.499 17.853 10.359 25.091 17.6 6.7 7.612 12.48 16.464 17.4 26.412 4.983 9.866 9.603 20.455 14.025 31.499" opacity=".51"/>
    <path stroke-dasharray="1 10" d="M514.926 338.719c4.054 9.971 7.939 19.556 11.68 28.609 4.612 8.333 8.924 16.142 12.77 23.361 4.388 6.642 7.958 12.826 10.477 18.544 3.208 7.848 2.103 21.51-2.462 27.456-3.767 3.896-8.91 7.625-15.226 11.17-6.255 3.89-13.385 7.82-21.17 11.834-7.322 4.683-15.027 9.671-22.957 14.958-7.243 6.183-14.355 12.405-21.352 18.564-6.549 6.874-13.283 13.474-20.317 19.7a159.492 159.492 0 0 1-23.078 18.136c-8.755 5.592-18.454 10.446-29 14.474-10.934 3.999-22.616 7.071-34.711 9.062-12.075 1.673-24.09 2.027-35.563.869-10.701-1.926-20.256-5.677-28.215-11.406-6.633-6.81-11.408-15.7-14.218-26.612-1.684-11.777-1.79-24.637-.8-38.086 1.082-13.544 2.567-27.171 4.117-40.532.845-12.884 1.452-25.321 1.782-37.167-.564-11.237-1.274-22.008-1.964-32.291-1.303-9.85-2.253-19.405-2.603-28.688-.582-8.992-.26-17.808 1.163-26.372 1.517-8.309 4.324-16.333 8.561-23.955 4.505-7.272 10.527-14.044 18.12-20.182 7.934-5.692 17.042-10.446 27.088-14.255 10.262-3.445 21.326-5.993 32.904-7.689 11.596-1.393 23.515-1.938 35.443-1.633 11.699.581 23.171 2.067 34.11 4.517 10.446 2.777 20.167 6.614 28.922 11.557 8.151 5.305 15.3 11.77 21.332 19.356 5.62 7.838 10.35 16.686 14.248 26.387 4.002 9.608 7.609 19.784 10.919 30.314" opacity=".54"/>
    <path stroke-dasharray="3 5" d="M508.404 351.493c2.98 9.465 5.73 18.53 8.303 27.053 3.357 7.969 6.414 15.393 9.047 22.21 4.414 9.225 9.362 24.557 9.118 30.83-1.636 5.634-11.524 15.304-19.434 19.676-5.533 3.163-11.932 6.358-19.032 9.633-6.732 3.87-13.975 8.018-21.619 12.43-7.126 5.198-14.315 10.46-21.55 15.694-6.892 5.858-14.05 11.532-21.518 16.882a179.671 179.671 0 0 1-24.04 15.624c-8.804 4.796-18.322 8.876-28.42 12.13a168.52 168.52 0 0 1-31.966 6.56c-10.748.82-21.258.366-31.115-1.513-9.092-2.517-17.056-6.665-23.534-12.537-5.305-6.707-8.934-15.18-10.784-25.366-.854-10.857-.27-22.64 1.331-34.95 1.76-12.414 3.976-25.01 6.343-37.467 1.861-12.134 3.586-23.986 5.116-35.387.81-10.95 1.495-21.491 2.18-31.579.128-9.695.513-19.057 1.342-28.017.593-8.684 1.908-17.055 4.106-25.014 2.23-7.692 5.538-14.97 10.043-21.72 4.71-6.405 10.707-12.223 18.037-17.328 7.598-4.681 16.154-8.402 25.44-11.18 9.458-2.41 19.533-3.922 29.961-4.553a195.42 195.42 0 0 1 31.54 1.557c10.282 1.635 20.261 4.152 29.67 7.55 8.982 3.691 17.246 8.312 24.566 13.88a89.624 89.624 0 0 1 17.601 20.337c4.556 7.86 8.288 16.506 11.226 25.818 3.082 9.205 5.736 18.849 8.042 28.747" opacity=".58"/>
    <path stroke-dasharray="6 5" d="M500.26 362.25a782.5 782.5 0 0 1 5.29 25.175c2.23 7.48 4.167 14.422 5.721 20.766 2.837 8.64 5.461 22.75 4.637 28.356-1.8 4.952-10.838 13.154-17.891 16.75-4.903 2.625-10.634 5.246-17.098 7.912-6.169 3.19-12.937 6.578-20.236 10.186a1150.327 1150.327 0 0 1-21.332 12.904c-7.033 4.835-14.381 9.515-22.036 13.897a192.324 192.324 0 0 1-24.218 12.774 166.661 166.661 0 0 1-27.205 9.43c-9.513 2.306-19.237 3.688-28.9 4.037-9.396.049-18.417-1.09-26.7-3.505-7.573-2.93-14.066-7.283-19.177-13.115-4.09-6.442-6.686-14.39-7.692-23.775-.144-9.87 1.011-20.531 3.111-31.655 2.3-11.236 5.097-22.671 8.12-34.073 2.677-11.197 5.324-22.227 7.889-32.912 1.985-10.37 3.897-20.4 5.8-30 1.442-9.296 3.06-18.22 4.986-26.697 1.712-8.207 3.958-16.015 6.892-23.316 2.925-7.031 6.703-13.567 11.42-19.474 4.878-5.583 10.79-10.51 17.763-14.657 7.192-3.777 15.1-6.569 23.53-8.415 8.561-1.53 17.549-2.14 26.722-1.892 9.17.527 18.372 1.907 27.378 4.098 8.812 2.439 17.261 5.7 25.12 9.767 7.515 4.293 14.323 9.41 20.253 15.309 5.558 6.096 10.252 12.979 14.011 20.548 3.564 7.668 6.36 15.952 8.42 24.72 2.23 8.684 4.02 17.685 5.423 26.857" opacity=".62"/>
    <path stroke-dasharray="5 11" d="M490.88 370.913a440.64 440.64 0 0 1 2.668 23.048c1.73 10.092 4.292 27.103 4.675 34.005-1.533 10.797-11.652 22.72-17.987 25.767-4.386 2.211-9.544 4.38-15.413 6.542-5.656 2.614-11.944 5.34-18.84 8.21a596.302 596.302 0 0 1-20.68 10.233 297.21 297.21 0 0 1-21.82 10.885 197.854 197.854 0 0 1-23.586 9.73 158.322 158.322 0 0 1-25.34 6.61c-8.578 1.42-17.179 2-25.545 1.627-8.057-.607-15.626-2.287-22.438-5.079-6.155-3.18-11.291-7.573-15.177-13.202-3.02-6.07-4.719-13.389-5-21.898.445-8.865 2.046-18.377 4.53-28.287 2.69-9.994 5.901-20.215 9.413-30.434a1863.291 1863.291 0 0 1 10.004-29.884c2.938-9.538 5.862-18.803 8.773-27.674 2.543-8.643 5.213-16.902 8.097-24.71 2.69-7.56 5.766-14.684 9.326-21.252 3.546-6.318 7.715-12.067 12.586-17.154 4.985-4.797 10.748-8.89 17.303-12.174 6.723-2.954 13.913-4.945 21.428-6.017 7.611-.775 15.45-.673 23.344.267a118.294 118.294 0 0 1 23.166 5.94c7.35 2.968 14.294 6.693 20.651 11.116 6.103 4.61 11.534 9.927 16.159 15.88 4.363 6.1 7.952 12.808 10.703 20.059 2.642 7.302 4.598 15.073 5.877 23.187 1.464 8.038 2.493 16.303 3.123 24.659" opacity=".66"/>
    <path stroke-dasharray="3 9" d="M480.614 377.522c.43 7.315.57 14.248.478 20.725.505 9.131.69 24.57.088 30.838-2.768 9.85-12.893 20.598-18.66 23.234-6.298 2.813-22.04 8.657-31.359 11.928a409.677 409.677 0 0 1-19.612 7.73 261.428 261.428 0 0 1-20.89 7.949 188.646 188.646 0 0 1-22.17 6.73c-7.538 1.891-15.226 3.206-22.899 3.871-7.546.606-14.95.447-22.016-.52-6.73-1.153-12.926-3.222-18.362-6.231-4.867-3.285-8.794-7.57-11.598-12.885-2.1-5.6-3.032-12.224-2.721-19.817.907-7.825 2.841-16.18 5.564-24.854 2.944-8.738 6.41-17.68 10.217-26.659a911.494 911.494 0 0 1 11.43-26.435c3.63-8.523 7.284-16.819 10.955-24.768 3.399-7.767 6.891-15.184 10.517-22.15 3.465-6.772 7.196-13.08 11.245-18.826 4.024-5.532 8.476-10.49 13.396-14.771a67.539 67.539 0 0 1 16.618-9.846c6.204-2.228 12.648-3.54 19.218-3.98 6.642-.198 13.355.445 19.975 1.866a91.125 91.125 0 0 1 19.11 7.076 84.565 84.565 0 0 1 16.47 11.67 77.07 77.07 0 0 1 12.417 15.668c3.297 5.863 5.894 12.213 7.763 18.955 1.83 6.779 3.044 13.905 3.658 21.255.808 7.295 1.183 14.749 1.168 22.247" opacity=".7"/>
    <path stroke-dasharray="3 5" d="M469.82 382.155c.1 12.809-.894 24.156-2.768 33.62-.378 8.883-2.259 16.034-5.886 21.341-2.916 5.17-8.154 9.072-15.734 11.838-7.193 3.505-16.78 6.655-28.65 9.468-11.423 4.287-24.133 7.937-37.441 10.705-13.065 3.582-26.771 5.51-40.087 5.36-12.66-.262-24.125-3.252-32.958-9.259-6.953-6.697-10.32-16.677-9.334-29.803 2.902-13.731 8.952-28.893 16.742-44.281 7.646-15.25 15.983-30.295 24.442-44.174 7.705-13.341 15.877-25.382 24.604-35.302 8.599-9.19 18.417-16.108 29.455-20.013 11.333-2.96 22.844-2.582 33.714.613a68.635 68.635 0 0 1 28.092 19.067c7.17 9.048 12.103 19.987 14.41 32.15 2.344 12.247 2.771 25.404 1.4 38.67" opacity=".73"/>
    <path stroke-dasharray="3 8" d="M458.789 385.007c-.882 11.097-2.818 20.901-5.527 29.079-1.504 7.843-4.214 14.182-8.24 18.9-3.372 4.707-8.524 8.22-15.522 10.616-6.678 3.01-15.35 5.45-25.977 7.304-10.357 2.961-21.744 5.127-33.482 6.368-11.516 1.877-23.257 2.277-34.27.923-10.386-1.357-19.396-4.939-25.923-10.892-5.05-6.352-6.985-15.235-5.225-26.529 3.24-11.641 9.23-24.34 16.848-37.156a423.784 423.784 0 0 1 24.945-36.842c8.283-11.164 16.926-21.15 25.802-29.227 8.75-7.482 18.17-12.894 28.085-15.596 10.097-1.924 19.774-.924 28.494 2.52 8.68 4.01 16.068 10.263 21.577 18.223 5.26 8.296 8.561 18.09 9.657 28.773 1.255 10.748.825 22.15-1.242 33.536" opacity=".77"/>
    <path stroke-dasharray="7 7" d="M447.779 386.264c-1.584 9.364-4.137 17.618-7.366 24.513-2.313 6.737-5.61 12.214-9.868 16.318-3.731 4.17-8.791 7.269-15.228 9.304-6.19 2.502-13.95 4.316-23.214 5.35-9.132 1.844-18.958 2.787-28.842 2.808-9.723.511-19.32-.264-28.024-2.461-8.154-2.124-14.908-5.984-19.448-11.62-3.434-5.816-4.247-13.525-2-22.986 3.343-9.628 9.033-19.971 16.164-30.294 7.292-10.268 15.488-20.338 23.975-29.543 8.24-8.922 16.787-16.82 25.338-23.068 8.452-5.796 17.174-9.802 25.867-11.483 8.8-1.081 16.782.29 23.62 3.67 6.819 3.82 12.315 9.483 16.136 16.503 3.719 7.259 5.763 15.69 5.966 24.764.435 9.128-.593 18.726-3.076 28.225" opacity=".81"/>
    <path stroke-dasharray="1 10" d="M436.958 386.19c-1.993 7.62-4.84 14.334-8.288 19.966-4.601 7.866-17.02 18.446-25.258 21.399-5.653 1.996-12.439 3.242-20.246 3.625-7.767.943-15.858.96-23.775.13-7.795-.482-15.235-2.039-21.718-4.677-8.445-4.458-15.817-19.817-13.346-30.704 3.23-7.711 8.37-15.827 14.747-23.823 6.553-7.941 13.97-15.64 21.706-22.593 7.633-6.764 15.526-12.648 23.3-17.185 7.722-4.212 15.447-6.948 22.84-7.806 7.432-.42 13.865 1.097 19.105 4.199 5.237 3.402 9.23 8.263 11.77 14.148 2.535 6.057 3.665 13.013 3.31 20.415-.13 7.452-1.516 15.238-4.147 22.906" opacity=".85"/>
    <path stroke-dasharray="3 0" d="M426.462 385.03c-3.76 11.806-10.543 20.88-18.91 26.275-7.358 5.774-17.711 8.797-30.304 8.273-12.555.886-25.04-1.79-34.25-7.311-8.131-5.133-11.296-14.032-6.966-25.84 6.22-11.853 17.912-24.164 31.04-34.112 13.047-9.447 26.975-15.83 38.983-16.586 12.03.385 20.07 6.43 23.32 15.628 3.41 9.685 2.507 21.825-2.913 33.673" opacity=".89"/>
    <path stroke-dasharray="4 9" d="M416.327 383c-3.66 8.544-9.785 15.16-16.975 19.1-6.664 4.236-15.199 6.264-24.614 5.343-9.455-.142-18.014-3.122-23.721-8.04-5.102-4.615-6.416-11.631-2.417-20.148 5.068-8.473 14.134-16.802 24.293-23.193 10.224-6.097 21.1-9.878 30.214-9.703 9.079.833 14.787 5.53 16.785 12.3 2.192 7.082 1.065 15.835-3.565 24.34" opacity=".92"/>
    <path stroke-dasharray="2 9" d="M406.574 380.312c-5.5 10.974-18.37 17.281-30.798 15.028-12.58-.921-19.841-9.776-14.064-20.707 7.616-10.726 24.74-19.374 36.986-18.434 12.11 2.144 15.095 13.338 7.876 24.113" opacity=".96"/>
  </g>
</svg>