<svg xmlns="http://www.w3.org/2000/svg" viewBox="0 0 500 500"><path fill="none" stroke-width="40" stroke-linecap="round" stroke-linejoin="round" stroke-miterlimit="10" d="M41.07 102.23h196.2l-48.62 99.53H90.46l147.38 196.01 111.68-147.71L335.85 201h49.38l73.7-98.77h-147.2L237.84 250"/><path d="M237.84 417.77h-.03a19.991 19.991 0 01-15.96-7.98L74.47 213.78c-4.56-6.06-5.29-14.17-1.91-20.95s10.31-11.07 17.89-11.07h85.71l29.08-59.52H41.07c-11.05 0-20-8.95-20-20s8.95-20 20-20h196.2c6.9 0 13.31 3.56 16.96 9.41a20 20 0 011 19.37l-48.62 99.52a19.99 19.99 0 01-17.97 11.22h-58.13l107.37 142.79L327.6 245.9l-11.02-39.53a20.015 20.015 0 013.34-17.47c3.78-4.98 9.67-7.9 15.93-7.9h39.35l43.85-58.76h-94.96l-68.36 136.71c-4.94 9.88-16.95 13.88-26.83 8.94-9.88-4.94-13.88-16.95-8.94-26.83l73.88-147.77a19.996 19.996 0 0117.89-11.06h147.2a20 20 0 0117.88 11.03 20.002 20.002 0 01-1.85 20.93l-73.69 98.76a19.996 19.996 0 01-16.03 8.04h-23.05l6.6 23.7c1.67 6.01.45 12.46-3.31 17.43L253.8 409.83c-3.78 5-9.69 7.94-15.96 7.94z"/>
<style>
    @media (prefers-color-scheme:dark){:root{filter:invert(100%)}}
  </style>
  </svg>
